name rise34.3697peak60.0498fall86.3158.mot
datacolumns 19
datarows 12
range 3.37499200000000 3.39332300000000
endheader
time	ground_force1_vx	ground_force1_vy	ground_force1_vz	ground_force1_px	ground_force1_py	ground_force1_pz	ground_force2_vx	ground_force2_vy	ground_force2_vz	ground_force2_px	ground_force2_py	ground_force2_pz	ground_torque1_x	ground_torque1_y	ground_torque1_z	ground_torque2_x	ground_torque2_y	ground_torque2_z	
3.37499200000000	58.62064300000000	780.02763300000004	48.01986900000000	0.43197300000000	0.00000000000000	0.07658900000000	0.00000000000000	0.00000000000000	0.00000000000000	0.00000000000000	0.00000000000000	0.00000000000000	0.00000000000000	30.99655400000000	0.00000000000000	0.00000000000000	0.00000000000000	0.00000000000000	
3.37665300000000	57.88083400000000	781.72913800000003	48.08186100000000	0.43022100000000	0.00000000000000	0.07670000000000	0.00000000000000	0.00000000000000	0.00000000000000	0.00000000000000	0.00000000000000	0.00000000000000	0.00000000000000	30.97955100000000	0.00000000000000	0.00000000000000	0.00000000000000	0.00000000000000	
3.37833100000000	57.14642000000000	783.32858899999997	48.13736700000000	0.42846400000000	0.00000000000000	0.07681200000000	0.00000000000000	0.00000000000000	0.00000000000000	0.00000000000000	0.00000000000000	0.00000000000000	0.00000000000000	30.95661500000000	0.00000000000000	0.00000000000000	0.00000000000000	0.00000000000000	
3.37999800000000	56.41764000000000	784.82492200000002	48.18635100000000	0.42670100000000	0.00000000000000	0.07692600000000	0.00000000000000	0.00000000000000	0.00000000000000	0.00000000000000	0.00000000000000	0.00000000000000	0.00000000000000	30.92787900000000	0.00000000000000	0.00000000000000	0.00000000000000	0.00000000000000	
3.38165400000000	55.69467200000000	786.21713199999999	48.22874000000000	0.42493400000000	0.00000000000000	0.07703900000000	0.00000000000000	0.00000000000000	0.00000000000000	0.00000000000000	0.00000000000000	0.00000000000000	0.00000000000000	30.89344800000000	0.00000000000000	0.00000000000000	0.00000000000000	0.00000000000000	
3.38332000000000	54.97763600000000	787.50428799999997	48.26442900000000	0.42316600000000	0.00000000000000	0.07715400000000	0.00000000000000	0.00000000000000	0.00000000000000	0.00000000000000	0.00000000000000	0.00000000000000	0.00000000000000	30.85339800000000	0.00000000000000	0.00000000000000	0.00000000000000	0.00000000000000	
3.38499700000000	54.26659700000000	788.68554400000005	48.29328100000000	0.42139700000000	0.00000000000000	0.07726800000000	0.00000000000000	0.00000000000000	0.00000000000000	0.00000000000000	0.00000000000000	0.00000000000000	0.00000000000000	30.80778600000000	0.00000000000000	0.00000000000000	0.00000000000000	0.00000000000000	
3.38665300000000	53.56157100000000	789.76015500000005	48.31513000000000	0.41962800000000	0.00000000000000	0.07738300000000	0.00000000000000	0.00000000000000	0.00000000000000	0.00000000000000	0.00000000000000	0.00000000000000	0.00000000000000	30.75664300000000	0.00000000000000	0.00000000000000	0.00000000000000	0.00000000000000	
3.38832400000000	52.86252500000000	790.72748799999999	48.32979000000000	0.41786200000000	0.00000000000000	0.07749800000000	0.00000000000000	0.00000000000000	0.00000000000000	0.00000000000000	0.00000000000000	0.00000000000000	0.00000000000000	30.69998200000000	0.00000000000000	0.00000000000000	0.00000000000000	0.00000000000000	
3.38999700000000	52.16938600000000	791.58703400000002	48.33705000000000	0.41609900000000	0.00000000000000	0.07761200000000	0.00000000000000	0.00000000000000	0.00000000000000	0.00000000000000	0.00000000000000	0.00000000000000	0.00000000000000	30.63780100000000	0.00000000000000	0.00000000000000	0.00000000000000	0.00000000000000	
3.39165300000000	51.48204100000000	792.33841900000004	48.33668700000000	0.41434100000000	0.00000000000000	0.07772600000000	0.00000000000000	0.00000000000000	0.00000000000000	0.00000000000000	0.00000000000000	0.00000000000000	0.00000000000000	30.57008200000000	0.00000000000000	0.00000000000000	0.00000000000000	0.00000000000000	
3.39332300000000	50.80034400000000	792.98141199999998	48.32846300000000	0.41258800000000	0.00000000000000	0.07783900000000	0.00000000000000	0.00000000000000	0.00000000000000	0.00000000000000	0.00000000000000	0.00000000000000	0.00000000000000	30.49679500000000	0.00000000000000	0.00000000000000	0.00000000000000	0.00000000000000	
